<svg viewBox="0 0 210 39" xmlns="http://www.w3.org/2000/svg"><path d="M110.083 19.68v-1.272h-6.576v-5.135h-1.274v13.692a3.544 3.544 0 003.543 3.545h10.764v-1.468h-11.135c-1.026 0-1.898-.699-1.898-1.856V19.68h6.576zm31.575 10.83v-3.015h-13.533c-.509 0-.854-.303-.854-.819v-9.71c0-.51.304-.854.82-.854h10.71v4.467h2.857v-7.308h-13.433a4.046 4.046 0 00-3.807 4.04v9.152a4.048 4.048 0 004.048 4.047h13.192zm-56.94-17.237v13.692a3.546 3.546 0 003.543 3.545h10.766v-1.468H87.892c-1.028 0-1.899-.699-1.899-1.856V13.273h-1.275zm-4.672 0v15.961h-9.493c-1.028 0-1.897-.698-1.897-1.856V13.273h-1.45v13.692a3.543 3.543 0 003.544 3.545h10.762V13.273h-1.466zM54.02 30.51h1.466V16.442c0-1.028.7-1.895 1.856-1.895h3.31c1.026 0 1.896.697 1.896 1.856V30.51H64V16.813a3.545 3.545 0 00-3.545-3.542h-2.89a3.539 3.539 0 00-2.812 1.387 3.535 3.535 0 00-2.81-1.387H49.05a3.542 3.542 0 00-3.543 3.542V30.51h1.466V16.442c0-1.028.697-1.895 1.856-1.895h3.308c1.026 0 1.898.697 1.898 1.856v.08c-.01.11-.016.221-.016.33V30.51zm65.727 0h1.466V13.273h-1.466V30.51zm0-19.788h1.466V7.863h-1.466v2.86zm68.874 2.56h-3.016v3.588c0 .51-.303.854-.818.854h-9.71c-.513 0-.856-.303-.856-.819v-3.624h-2.84v3.49a4.047 4.047 0 004.04 3.806h9.153a4.048 4.048 0 004.047-4.047v-3.249zM171.38 30.51h3.014v-5.15c0-.509.304-.853.82-.853h9.708c.514 0 .858.301.858.817v5.186h2.84v-5.052a4.047 4.047 0 00-4.039-3.806h-9.156a4.047 4.047 0 00-4.045 4.047v4.811zm-12.322-13.05v13.05h3.046V17.316a4.045 4.045 0 00-4.047-4.045h-9.153a4.046 4.046 0 00-4.039 3.805v9.395a4.047 4.047 0 003.806 4.04h9.091v-2.85l-9.225.008c-.063 0-.125-.004-.183-.014-.404-.074-.638-.393-.638-.842V25.32l-.01-8.377c0-.516.344-.819.854-.819h9.71c.514 0 .82.342.82.854l-.032.482zm46.961 0v13.05h3.046V17.316a4.044 4.044 0 00-4.046-4.045h-9.154a4.045 4.045 0 00-4.037 3.805v9.395a4.047 4.047 0 003.805 4.04h9.091v-2.85l-9.228.008a1.05 1.05 0 01-.18-.014c-.404-.074-.637-.393-.637-.842V25.32l-.012-8.377c0-.516.343-.819.854-.819h9.71c.517 0 .821.342.821.854l-.033.482zm-40.709-6.738h2.861V7.863h-2.86v2.86zm.001 19.788h2.861V13.281h-2.86v17.23zM16.876.866l3.582 3.58c.577-.569 1.286-1.002 2.051-1.208l4.302-1.153c1.95-.522 3.53.634 3.53 2.583v5.064c.81.007 1.617.2 2.303.597l3.857 2.227c1.748 1.008 2.047 2.943.67 4.321l-3.495 3.493c.585.585 1.031 1.306 1.24 2.085l1.154 4.303c.521 1.948-.636 3.527-2.584 3.527h-4.94c0 .827-.195 1.652-.598 2.352l-2.227 3.857c-1.009 1.747-2.943 2.046-4.32.668l-3.495-3.494c-.584.585-1.304 1.031-2.084 1.24l-4.303 1.153c-1.948.522-3.527-.634-3.527-2.583v-5.18c-.909.043-1.832-.148-2.602-.592L1.533 25.48c-1.747-1.008-2.046-2.944-.668-4.32l3.58-3.582c-.569-.577-1.002-1.286-1.207-2.05l-1.153-4.303c-.522-1.949.634-3.528 2.583-3.528h5.064c.006-.81.201-1.619.597-2.306l2.227-3.856C13.564-.213 15.5-.513 16.876.866zm2.152 28.524l.016 2.045 3.644 3.645c.322.32.678.296.917-.114l.36-.621-4.937-4.955zm-7.3-3.028l-1.434 1.458v5.152c0 .456.27.69.728.569l.707-.183v-6.996zm10.708-.231a7.873 7.873 0 01-3.392.79l-.004.933 5.503 5.502 1.487-2.554c.238-.406.205-.872-.12-1.195zm-8.95-1.503l-.663.657v7.78l2.859-.752c.454-.121.76-.472.76-.93v-4.916a7.848 7.848 0 01-2.955-1.84zm12.845 1.742l1.457 1.434h5.154c.453 0 .689-.27.568-.728l-.184-.695-6.995-.011zm-16.086-7.298l-5.503 5.502 2.555 1.488c.406.237.87.205 1.194-.12l3.476-3.475a7.873 7.873 0 01-.79-3.392l-.932-.003zm21.106 2.584h-4.915a7.863 7.863 0 01-1.84 2.956l.657.663h7.78l-.753-2.86c-.12-.453-.471-.76-.93-.76zm-12.334-8.32a5.678 5.678 0 10.002 11.355 5.678 5.678 0 00-.002-11.355zM8.71 19.06l-2.046.016-3.643 3.644c-.322.322-.297.678.113.917l.62.363 4.956-4.94zm25.605-4.926l-4.955 4.938 2.045-.016 3.643-3.645c.322-.321.296-.678-.113-.917l-.62-.36zm-3.544-2.065c-.406-.237-.87-.205-1.194.119L26.1 15.663a7.887 7.887 0 01.789 3.392l.933.003 5.503-5.502zm-17.956.788H5.032l.755 2.857c.119.456.47.76.929.76h4.915a7.878 7.878 0 011.84-2.956l-.657-.661zm12.429-7.792l-2.858.755c-.454.119-.76.47-.76.928v4.916a7.846 7.846 0 012.956 1.84l.662-.658V5.064zm-11.72-.29l-1.487 2.554c-.236.407-.205.87.12 1.195L15.633 12a7.865 7.865 0 013.39-.79l.005-.933-5.503-5.502zm14.25.383c0-.455-.27-.69-.728-.568l-.706.183v6.996l1.435-1.458zM10.28 10.326H5.126c-.455 0-.69.269-.568.728l.182.706h6.997l-1.458-1.434zm5.1-7.274c-.321-.322-.68-.297-.917.113l-.362.62L19.04 8.74l-.016-2.045z" fill="#FFF" fill-rule="evenodd"/></svg>